<svg width="585" height="544" viewBox="0 0 585 544" fill="none" xmlns="http://www.w3.org/2000/svg">
<g filter="url(#filter0_d)">
<rect x="22.5" y="17.5" width="445" height="23" fill="white" stroke="#D3DBE3"/>
<path d="M37 28.2113C36.8662 28.0986 36.7325 28.0423 36.5987 28.0423C36.5223 28.0423 36.4076 28.0704 36.2548 28.1268C36.121 28.1831 36.0159 28.2113 35.9395 28.2113C35.8631 28.1925 35.7484 28.1268 35.5955 28.0141C35.4427 27.8826 35.328 27.8357 35.2516 27.8732C35.0796 27.9484 35.0605 28.1174 35.1943 28.3803C35.328 28.6244 35.4809 28.7934 35.6529 28.8873L36.1688 29.169C36.4554 29.2817 36.6178 29.507 36.6561 29.8451C36.6561 30.0329 36.6561 30.1455 36.6561 30.1831C36.5987 30.3897 36.4554 30.5775 36.2261 30.7465C36.0159 30.9155 35.7771 31.0188 35.5096 31.0563C35.242 31.0939 35.0127 31.0469 34.8217 30.9155C34.4586 30.6714 34.2484 30.3709 34.1911 30.0141C34.1146 29.7512 33.9522 29.3944 33.7038 28.9437C33.4554 28.493 33.3025 28.1361 33.2452 27.8732C33.207 27.723 33.1497 27.4789 33.0732 27.1408L32.9299 26.4366L32.5573 25.0282C32.4427 24.5211 32.2994 24.061 32.1274 23.6479C31.9936 23.2911 31.8694 23 31.7548 22.7746C31.6592 22.6056 31.5732 22.4836 31.4968 22.4085C31.4204 22.3146 31.3631 22.2582 31.3248 22.2394H31.2675L31.3535 22.493C31.4299 22.7559 31.535 23.1408 31.6688 23.6479C31.8217 24.3615 32.0127 25.2629 32.242 26.3521C32.4331 27.4789 32.6051 28.2488 32.758 28.662L32.8439 28.8873C32.9395 29.169 33.0064 29.3568 33.0446 29.4507C33.1019 29.5446 33.207 29.7136 33.3599 29.9577C33.551 30.277 33.6847 30.5211 33.7611 30.6901C33.8949 30.9906 33.9713 31.2441 33.9904 31.4507L34.0191 31.9296C34.0382 32.2113 34.0478 32.4178 34.0478 32.5493C34.0478 32.7371 34.086 32.9437 34.1624 33.169C34.2197 33.338 34.3822 33.5634 34.6497 33.8451C34.9554 34.1643 35.2898 34.4272 35.6529 34.6338C36.1115 34.8779 36.551 35 36.9713 35V33.9296C36.5701 33.9296 36.1401 33.8638 35.6815 33.7324C35.3376 33.6385 35.0127 33.5164 34.707 33.3662C34.4395 33.2347 34.2962 33.1596 34.2771 33.1408C34.2771 33.1033 34.2962 32.9906 34.3344 32.8028C34.3726 32.5962 34.4204 32.446 34.4777 32.3521C34.6879 31.8075 35.051 31.507 35.5669 31.4507C35.8344 31.4319 36.1592 31.4601 36.5414 31.5352C36.7325 31.5728 36.8758 31.5915 36.9713 31.5915L37 28.2113ZM31.1242 24.3239C31.1051 24.5681 30.9904 24.8498 30.7803 25.169C30.6465 25.3568 30.4172 25.6479 30.0924 26.0423C29.7293 26.4742 29.5 26.784 29.4045 26.9718C29.3089 27.1408 29.2134 27.3568 29.1178 27.6197C29.0223 27.8638 28.9554 28.0704 28.9172 28.2394C28.8408 28.6714 28.8408 29.0751 28.9172 29.4507C28.9745 29.7136 29.0796 30.0329 29.2325 30.4085C29.3854 30.7653 29.4331 31.1127 29.3758 31.4507C29.3758 31.507 29.3758 31.5446 29.3758 31.5634C29.3949 31.5634 29.4331 31.5446 29.4904 31.507C29.6624 31.3756 29.7675 31.1502 29.8057 30.831C29.8248 30.662 29.8248 30.3991 29.8057 30.0423V29.9577C29.7675 29.4131 29.7675 28.9906 29.8057 28.6901C29.9013 27.939 30.2643 27.1315 30.8949 26.2676C31.258 25.7418 31.3344 25.0939 31.1242 24.3239ZM31.3822 26.6056C31.4013 26.6808 31.4108 26.7559 31.4108 26.831C31.4108 27.0563 31.3822 27.3099 31.3248 27.5915C31.2484 27.9671 31.1242 28.3991 30.9522 28.8873C30.5892 29.9202 30.4554 30.7934 30.551 31.507C30.6274 32.108 30.8567 32.6244 31.2389 33.0563C31.449 33.3005 31.8121 33.5915 32.328 33.9296C32.7293 34.2113 32.9968 34.4272 33.1306 34.5775L33.1592 34.493C33.1783 34.4178 33.1688 34.3146 33.1306 34.1831C33.0732 34.0329 32.9777 33.8451 32.8439 33.6197C32.672 33.3568 32.4427 33.0751 32.1561 32.7746C31.8885 32.4742 31.6975 32.0704 31.5828 31.5634C31.4299 30.9437 31.4395 30.2582 31.6115 29.507C31.7452 28.9812 31.8121 28.5023 31.8121 28.0704C31.8121 27.7324 31.7739 27.4413 31.6975 27.1972C31.6592 27.0094 31.5924 26.8592 31.4968 26.7465L31.3822 26.6056ZM28.5732 23.8169C28.4968 23.5728 28.4682 23.3474 28.4873 23.1408C28.5064 22.7465 28.6592 22.4085 28.9459 22.1268C29.0987 21.9577 29.3185 21.7981 29.6051 21.6479L29.7197 21.5634L29.9204 21.3944C30.0732 21.2441 30.1592 21.1127 30.1783 21L30.2357 21.3099C30.2739 21.5352 30.2643 21.7512 30.207 21.9577C30.1115 22.2394 29.9108 22.4742 29.6051 22.662C29.1465 22.9437 28.8025 23.3286 28.5732 23.8169ZM30.8949 22.8592C30.8949 22.8592 30.9045 22.8592 30.9236 22.8592C31.172 23.3099 30.7803 23.9577 29.7484 24.8028C29.0987 25.3286 28.7261 25.8451 28.6306 26.3521C28.5732 26.615 28.5924 26.8216 28.6879 26.9718L28.4586 26.8028C28.2866 26.6526 28.1624 26.493 28.086 26.3239C27.9713 26.061 27.9713 25.7981 28.086 25.5352C28.2006 25.1784 28.4777 24.8216 28.9172 24.4648C29.7197 23.8075 30.2166 23.2911 30.4076 22.9155C30.5032 22.7089 30.5223 22.5869 30.465 22.5493L30.6369 22.5775C30.7516 22.6338 30.8376 22.7277 30.8949 22.8592ZM32.9586 23.338C33.035 23.338 33.1306 23.4413 33.2452 23.6479C33.379 23.8545 33.4936 23.9953 33.5892 24.0704C33.7229 24.2207 33.8662 24.3239 34.0191 24.3803C34.1338 24.4178 34.3057 24.4554 34.535 24.493C34.707 24.5117 34.8217 24.5305 34.879 24.5493C34.9936 24.5869 35.0701 24.6432 35.1083 24.7183C34.9936 24.7746 34.965 24.8685 35.0223 25C35.0796 25.1127 35.1656 25.1596 35.2803 25.1408C35.3567 24.8967 35.3662 24.6244 35.3089 24.3239C35.2516 23.9108 35.0605 23.6103 34.7357 23.4225C34.3153 23.1784 33.7229 23.1502 32.9586 23.338ZM33.8185 23.7042C33.8185 23.6854 33.828 23.6761 33.8471 23.6761C33.8854 23.6761 33.914 23.6761 33.9331 23.6761L33.9904 23.5915C34.0669 23.5164 34.1338 23.4695 34.1911 23.4507C34.3057 23.4131 34.4108 23.4225 34.5064 23.4789C34.5255 23.4789 34.5255 23.507 34.5064 23.5634C34.5064 23.6009 34.4968 23.6385 34.4777 23.6761C34.4586 23.6948 34.4108 23.6948 34.3344 23.6761C34.2006 23.6761 34.1338 23.723 34.1338 23.8169C34.1338 23.9108 34.1624 23.9577 34.2197 23.9577C34.2771 23.9577 34.3631 23.939 34.4777 23.9014C34.6115 23.8451 34.707 23.8169 34.7643 23.8169C34.8025 24.0423 34.7261 24.1831 34.535 24.2394C34.3439 24.2958 34.1624 24.2676 33.9904 24.1549C33.8185 24.0423 33.7611 23.892 33.8185 23.7042Z" fill="#3A383A"/>
<rect x="22.5" y="40.5" width="445" height="23" fill="white" stroke="#D3DBE3"/>
<rect x="22.5" y="63.5" width="31" height="309" fill="white" stroke="#D3DBE3"/>
<rect x="53.5" y="63.5" width="117" height="309" fill="white" stroke="#D3DBE3"/>
<rect x="170.5" y="63.5" width="297" height="26" fill="white" stroke="#D3DBE3"/>
<rect x="170.5" y="89.5" width="297" height="283" fill="white" stroke="#D3DBE3"/>
<rect x="186.5" y="102.5" width="265" height="85" fill="white" stroke="#D3DBE3"/>
<rect x="186.5" y="200.5" width="265" height="85" fill="white" stroke="#D3DBE3"/>
<rect x="57.5" y="68.5" width="108" height="17" stroke="#E8EBEE"/>
<rect x="57" y="93" width="109" height="40" fill="#E8EBEE"/>
<rect x="57" y="141" width="109" height="40" fill="#E8EBEE"/>
<rect x="57" y="189" width="109" height="40" fill="#E8EBEE"/>
<rect x="57" y="237" width="109" height="40" fill="#E8EBEE"/>
<rect x="186" y="71" width="34" height="12" fill="#E8EBEE"/>
<rect x="228" y="71" width="34" height="12" fill="#E8EBEE"/>
<rect x="270" y="71" width="34" height="12" fill="#E8EBEE"/>
<rect x="312" y="71" width="34" height="12" fill="#E8EBEE"/>
<rect x="354" y="71" width="34" height="12" fill="#E8EBEE"/>
<rect x="396" y="71" width="34" height="12" fill="#E8EBEE"/>
<rect x="388" y="22" width="74" height="12" fill="#E8EBEE"/>
<rect x="34" y="46" width="34" height="12" fill="#E8EBEE"/>
<rect x="76" y="46" width="34" height="12" fill="#E8EBEE"/>
<rect x="118" y="46" width="34" height="12" fill="#E8EBEE"/>
<rect x="160" y="46" width="34" height="12" fill="#E8EBEE"/>
<rect x="428" y="46" width="34" height="12" fill="#C6CDD3"/>
<rect x="388" y="46" width="34" height="12" fill="#C6CDD3"/>
</g>
<g filter="url(#filter1_d)">
<rect x="269" y="107" width="294" height="415" fill="white"/>
</g>
<path d="M321.153 137.864V141.002H321.844C323.047 141.002 323.822 140.936 324.168 140.804C324.514 140.672 324.756 140.503 324.893 140.298C325.025 140.093 325.091 139.817 325.091 139.471C325.091 138.814 324.84 138.372 324.339 138.145C323.924 137.958 323.2 137.864 322.165 137.864H321.153ZM321.153 133.975V136.866H321.543C322.145 136.862 322.612 136.85 322.944 136.832C323.277 136.814 323.564 136.761 323.806 136.675C324.289 136.502 324.53 136.098 324.53 135.465C324.53 134.831 324.277 134.412 323.771 134.207C323.393 134.052 322.669 133.975 321.598 133.975H321.153ZM326.15 139.375C326.15 140.15 325.952 140.726 325.556 141.104C325.159 141.483 324.646 141.727 324.018 141.836C323.389 141.945 322.596 142 321.639 142H320.094V132.99H321.461C322.919 132.99 323.972 133.168 324.619 133.523C325.266 133.879 325.588 134.496 325.583 135.376C325.583 136.251 325.314 136.878 324.776 137.256C325.692 137.63 326.15 138.336 326.15 139.375ZM330.136 135.752C329.603 135.752 329.172 135.939 328.844 136.312C328.516 136.686 328.304 137.169 328.208 137.762H331.544C331.53 136.777 331.289 136.158 330.819 135.902C330.632 135.802 330.405 135.752 330.136 135.752ZM332.583 138.719H328.16C328.21 139.466 328.445 140.059 328.864 140.496C329.284 140.934 329.814 141.152 330.457 141.152C331.1 141.152 331.754 140.984 332.419 140.646L332.439 140.653V141.631C331.751 141.968 331.072 142.137 330.402 142.137C329.372 142.137 328.566 141.799 327.982 141.125C327.399 140.451 327.107 139.557 327.107 138.445C327.107 137.338 327.358 136.447 327.859 135.772C328.361 135.103 329.122 134.768 330.143 134.768C331.163 134.768 331.865 135.178 332.248 135.998C332.467 136.467 332.578 137.055 332.583 137.762V138.719ZM335.153 141.146C335.532 141.141 335.853 141.102 336.117 141.029C336.382 140.956 336.609 140.829 336.801 140.646C337.001 140.464 337.102 140.227 337.102 139.936C337.102 139.644 336.924 139.391 336.568 139.177C336.423 139.086 336.135 138.953 335.707 138.78C335.279 138.607 334.962 138.464 334.757 138.35C334.032 137.962 333.67 137.39 333.67 136.634C333.67 136.201 333.784 135.841 334.012 135.554C334.426 135.03 335.117 134.768 336.083 134.768C336.571 134.768 337.051 134.834 337.525 134.966V135.923L337.484 135.943C336.933 135.793 336.411 135.718 335.919 135.718C335.117 135.718 334.716 135.993 334.716 136.545C334.716 136.887 334.9 137.174 335.27 137.406C335.424 137.516 335.743 137.666 336.227 137.857C336.71 138.049 337.088 138.215 337.361 138.356C337.635 138.498 337.835 138.687 337.963 138.924C338.09 139.161 338.157 139.473 338.161 139.86C338.161 140.576 337.869 141.134 337.286 141.535C336.707 141.936 336.081 142.137 335.406 142.137C334.732 142.137 334.144 142.03 333.643 141.815V140.824L333.684 140.79C334.285 141.027 334.775 141.146 335.153 141.146ZM340.861 132.102V142H339.809V132.238L340.793 132.102H340.861ZM345.592 141.159C346.084 141.159 346.708 140.934 347.465 140.482V134.904H348.524V142H347.854L347.643 141.323C346.809 141.866 346.057 142.137 345.387 142.137C344.712 142.137 344.143 141.923 343.678 141.494C343.213 141.066 342.98 140.382 342.98 139.443V134.904H344.04V139.382C344.04 140.567 344.557 141.159 345.592 141.159ZM350.924 134.904H351.977V142H350.924V134.904ZM350.938 133.476C350.792 133.334 350.719 133.163 350.719 132.963C350.719 132.762 350.789 132.591 350.931 132.45C351.072 132.309 351.245 132.238 351.45 132.238C351.655 132.238 351.831 132.309 351.977 132.45C352.122 132.591 352.193 132.762 352.188 132.963C352.188 133.163 352.116 133.337 351.97 133.482C351.824 133.628 351.653 133.699 351.457 133.694C351.257 133.694 351.083 133.621 350.938 133.476ZM353.562 134.904H354.349V133.633L355.34 133.448H355.408V134.904H357.377V135.889H355.408V139.375C355.408 139.977 355.522 140.423 355.75 140.715C355.978 141.007 356.292 141.155 356.693 141.159C357.085 141.159 357.527 141.018 358.02 140.735L358.307 141.706C357.673 141.993 357.058 142.137 356.461 142.137C355.864 142.137 355.363 141.913 354.957 141.467C354.551 141.02 354.349 140.323 354.349 139.375V135.889H353.562V134.904Z" fill="black"/>
<path d="M306 137.332C305.792 137.155 305.584 137.066 305.376 137.066C305.257 137.066 305.079 137.111 304.841 137.199C304.633 137.288 304.469 137.332 304.35 137.332C304.231 137.302 304.053 137.199 303.815 137.022C303.577 136.816 303.399 136.742 303.28 136.801C303.013 136.919 302.983 137.184 303.191 137.598C303.399 137.981 303.637 138.247 303.904 138.394L304.707 138.837C305.153 139.014 305.406 139.368 305.465 139.899C305.465 140.194 305.465 140.372 305.465 140.431C305.376 140.755 305.153 141.05 304.796 141.316C304.469 141.581 304.098 141.744 303.682 141.803C303.265 141.862 302.909 141.788 302.611 141.581C302.047 141.198 301.72 140.726 301.631 140.165C301.512 139.752 301.259 139.191 300.873 138.483C300.486 137.775 300.248 137.214 300.159 136.801C300.1 136.565 300.011 136.181 299.892 135.65L299.669 134.543L299.089 132.33C298.911 131.533 298.688 130.81 298.42 130.161C298.212 129.6 298.019 129.143 297.841 128.789C297.692 128.523 297.558 128.331 297.439 128.213C297.321 128.066 297.231 127.977 297.172 127.948H297.083L297.217 128.346C297.335 128.759 297.499 129.364 297.707 130.161C297.945 131.282 298.242 132.699 298.599 134.41C298.896 136.181 299.163 137.391 299.401 138.04L299.535 138.394C299.684 138.837 299.788 139.132 299.847 139.28C299.936 139.427 300.1 139.693 300.338 140.076C300.635 140.578 300.843 140.962 300.962 141.227C301.17 141.7 301.289 142.098 301.318 142.423L301.363 143.175C301.393 143.618 301.408 143.942 301.408 144.149C301.408 144.444 301.467 144.769 301.586 145.123C301.675 145.388 301.928 145.742 302.344 146.185C302.82 146.687 303.34 147.1 303.904 147.425C304.618 147.808 305.301 148 305.955 148V146.318C305.331 146.318 304.662 146.215 303.949 146.008C303.414 145.86 302.909 145.669 302.433 145.433C302.017 145.226 301.794 145.108 301.764 145.078C301.764 145.019 301.794 144.842 301.854 144.547C301.913 144.223 301.987 143.987 302.076 143.839C302.403 142.983 302.968 142.511 303.771 142.423C304.187 142.393 304.692 142.437 305.287 142.555C305.584 142.614 305.807 142.644 305.955 142.644L306 137.332ZM296.86 131.223C296.83 131.607 296.652 132.05 296.325 132.551C296.117 132.846 295.76 133.304 295.255 133.924C294.69 134.602 294.333 135.089 294.185 135.384C294.036 135.65 293.887 135.989 293.739 136.402C293.59 136.786 293.486 137.111 293.427 137.376C293.308 138.055 293.308 138.689 293.427 139.28C293.516 139.693 293.679 140.194 293.917 140.785C294.155 141.345 294.229 141.891 294.14 142.423C294.14 142.511 294.14 142.57 294.14 142.6C294.17 142.6 294.229 142.57 294.318 142.511C294.586 142.304 294.749 141.95 294.809 141.449C294.839 141.183 294.839 140.77 294.809 140.209V140.076C294.749 139.221 294.749 138.557 294.809 138.085C294.958 136.904 295.522 135.635 296.503 134.278C297.068 133.451 297.187 132.433 296.86 131.223ZM297.261 134.809C297.291 134.927 297.306 135.045 297.306 135.163C297.306 135.517 297.261 135.915 297.172 136.358C297.053 136.948 296.86 137.627 296.592 138.394C296.028 140.017 295.82 141.39 295.968 142.511C296.087 143.455 296.444 144.267 297.038 144.946C297.365 145.329 297.93 145.787 298.732 146.318C299.357 146.761 299.773 147.1 299.981 147.336L300.025 147.203C300.055 147.085 300.04 146.923 299.981 146.716C299.892 146.48 299.743 146.185 299.535 145.831C299.268 145.418 298.911 144.975 298.465 144.503C298.049 144.031 297.752 143.396 297.573 142.6C297.335 141.626 297.35 140.549 297.618 139.368C297.826 138.542 297.93 137.789 297.93 137.111C297.93 136.579 297.87 136.122 297.752 135.738C297.692 135.443 297.588 135.207 297.439 135.03L297.261 134.809ZM292.892 130.427C292.773 130.043 292.728 129.689 292.758 129.364C292.788 128.744 293.025 128.213 293.471 127.771C293.709 127.505 294.051 127.254 294.497 127.018L294.675 126.885L294.987 126.62C295.225 126.384 295.359 126.177 295.389 126L295.478 126.487C295.537 126.841 295.522 127.18 295.433 127.505C295.285 127.948 294.972 128.317 294.497 128.612C293.783 129.054 293.248 129.659 292.892 130.427ZM296.503 128.922C296.503 128.922 296.518 128.922 296.548 128.922C296.934 129.63 296.325 130.648 294.72 131.976C293.709 132.802 293.13 133.614 292.981 134.41C292.892 134.824 292.921 135.148 293.07 135.384L292.713 135.119C292.446 134.883 292.253 134.632 292.134 134.366C291.955 133.953 291.955 133.54 292.134 133.127C292.312 132.566 292.743 132.005 293.427 131.445C294.675 130.412 295.448 129.6 295.745 129.01C295.894 128.685 295.924 128.494 295.834 128.435L296.102 128.479C296.28 128.567 296.414 128.715 296.503 128.922ZM299.713 129.674C299.832 129.674 299.981 129.836 300.159 130.161C300.367 130.486 300.546 130.707 300.694 130.825C300.902 131.061 301.125 131.223 301.363 131.312C301.541 131.371 301.809 131.43 302.166 131.489C302.433 131.518 302.611 131.548 302.701 131.577C302.879 131.636 302.998 131.725 303.057 131.843C302.879 131.932 302.834 132.079 302.924 132.286C303.013 132.463 303.146 132.537 303.325 132.507C303.444 132.123 303.459 131.696 303.369 131.223C303.28 130.574 302.983 130.102 302.478 129.807C301.824 129.423 300.902 129.379 299.713 129.674ZM301.051 130.249C301.051 130.22 301.066 130.205 301.096 130.205C301.155 130.205 301.2 130.205 301.229 130.205L301.318 130.072C301.437 129.954 301.541 129.881 301.631 129.851C301.809 129.792 301.972 129.807 302.121 129.895C302.151 129.895 302.151 129.94 302.121 130.028C302.121 130.087 302.106 130.146 302.076 130.205C302.047 130.235 301.972 130.235 301.854 130.205C301.645 130.205 301.541 130.279 301.541 130.427C301.541 130.574 301.586 130.648 301.675 130.648C301.764 130.648 301.898 130.618 302.076 130.559C302.285 130.471 302.433 130.427 302.522 130.427C302.582 130.781 302.463 131.002 302.166 131.091C301.868 131.179 301.586 131.135 301.318 130.958C301.051 130.781 300.962 130.545 301.051 130.249Z" fill="#3A383A"/>
<rect x="290" y="170" width="148" height="7" fill="#C6CDD3"/>
<rect x="290" y="194" width="226" height="7" fill="#E8EBEE"/>
<rect x="290" y="207" width="233" height="7" fill="#E8EBEE"/>
<rect x="290" y="220" width="220" height="7" fill="#E8EBEE"/>
<rect x="290" y="233" width="233" height="7" fill="#E8EBEE"/>
<rect x="290" y="246" width="233" height="7" fill="#E8EBEE"/>
<rect x="290" y="259" width="233" height="7" fill="#E8EBEE"/>
<rect x="290" y="272" width="213" height="7" fill="#E8EBEE"/>
<rect x="290" y="285" width="233" height="7" fill="#E8EBEE"/>
<rect x="290" y="309" width="226" height="7" fill="#E8EBEE"/>
<rect x="290" y="322" width="233" height="7" fill="#E8EBEE"/>
<rect x="290" y="335" width="220" height="7" fill="#E8EBEE"/>
<rect x="290" y="348" width="233" height="7" fill="#E8EBEE"/>
<rect x="290" y="361" width="233" height="7" fill="#E8EBEE"/>
<rect x="290" y="374" width="233" height="7" fill="#E8EBEE"/>
<rect x="290" y="387" width="213" height="7" fill="#E8EBEE"/>
<rect x="290" y="400" width="233" height="7" fill="#E8EBEE"/>
<rect x="539" y="503" width="9" height="7" fill="#C6CDD3"/>
<defs>
<filter id="filter0_d" x="10" y="9" width="470" height="380" filterUnits="userSpaceOnUse" color-interpolation-filters="sRGB">
<feFlood flood-opacity="0" result="BackgroundImageFix"/>
<feColorMatrix in="SourceAlpha" type="matrix" values="0 0 0 0 0 0 0 0 0 0 0 0 0 0 0 0 0 0 127 0"/>
<feOffset dy="4"/>
<feGaussianBlur stdDeviation="6"/>
<feColorMatrix type="matrix" values="0 0 0 0 0.268819 0 0 0 0 0.301314 0 0 0 0 0.329167 0 0 0 0.33 0"/>
<feBlend mode="normal" in2="BackgroundImageFix" result="effect1_dropShadow"/>
<feBlend mode="normal" in="SourceGraphic" in2="effect1_dropShadow" result="shape"/>
</filter>
<filter id="filter1_d" x="257" y="99" width="318" height="439" filterUnits="userSpaceOnUse" color-interpolation-filters="sRGB">
<feFlood flood-opacity="0" result="BackgroundImageFix"/>
<feColorMatrix in="SourceAlpha" type="matrix" values="0 0 0 0 0 0 0 0 0 0 0 0 0 0 0 0 0 0 127 0"/>
<feOffset dy="4"/>
<feGaussianBlur stdDeviation="6"/>
<feColorMatrix type="matrix" values="0 0 0 0 0.268819 0 0 0 0 0.301314 0 0 0 0 0.329167 0 0 0 0.33 0"/>
<feBlend mode="normal" in2="BackgroundImageFix" result="effect1_dropShadow"/>
<feBlend mode="normal" in="SourceGraphic" in2="effect1_dropShadow" result="shape"/>
</filter>
</defs>
</svg>
